<svg xmlns="http://www.w3.org/2000/svg" xmlns:xlink="http://www.w3.org/1999/xlink" width="1200" height="1200" viewBox="0 0 1200 1200"><g><g transform="translate(600 600) scale(0.69 0.69) rotate(0) translate(-600 -600)" style="fill:#B3B3B3"><svg fill="#B3B3B3" xmlns="http://www.w3.org/2000/svg" xmlns:xlink="http://www.w3.org/1999/xlink" version="1.2" baseProfile="tiny" x="0px" y="0px" viewBox="0 0 100 100" xml:space="preserve"><g><path d="M85,13.8H75c-0.7,0-1.2,0.6-1.2,1.2s0.6,1.2,1.2,1.2h10c4.8,0,8.8,3.9,8.8,8.8v10c0,0.7,0.6,1.2,1.2,1.2s1.2-0.6,1.2-1.2   V25C96.2,18.8,91.2,13.8,85,13.8z"></path><path d="M5,36.2c0.7,0,1.2-0.6,1.2-1.2V25c0-4.8,3.9-8.8,8.8-8.8h10c0.7,0,1.2-0.6,1.2-1.2s-0.6-1.2-1.2-1.2H15   c-6.2,0-11.2,5-11.2,11.2v10C3.8,35.7,4.3,36.2,5,36.2z"></path><path d="M25,83.8H15c-4.8,0-8.8-3.9-8.8-8.8V65c0-0.7-0.6-1.2-1.2-1.2S3.8,64.3,3.8,65v10c0,6.2,5,11.2,11.2,11.2h10   c0.7,0,1.2-0.6,1.2-1.2S25.7,83.8,25,83.8z"></path><path d="M95,63.8c-0.7,0-1.2,0.6-1.2,1.2v10c0,4.8-3.9,8.8-8.8,8.8H75c-0.7,0-1.2,0.6-1.2,1.2s0.6,1.2,1.2,1.2h10   c6.2,0,11.2-5,11.2-11.2V65C96.2,64.3,95.7,63.8,95,63.8z"></path><path d="M75.9,77.4c0.2,0,0.4,0,0.6-0.1c0.6-0.3,0.9-1.1,0.5-1.7c-0.1-0.2-3.1-5.9-10.6-6.2c-5.5-0.2-5.7-4.5-5.7-5   c0-0.1,0-0.1,0-0.2l-0.2-1.3l3.9,1.1c0.4,0.1,0.9,0,1.2-0.3c0.3-0.3,0.5-0.8,0.4-1.2L65.3,60c4.7,1.2,8-1.4,8.2-1.6   c0.3-0.2,0.5-0.6,0.5-1s-0.2-0.8-0.5-1c-7.1-5-6.9-17.1-6.9-17.2c0-0.1,0-0.2,0-0.3c-0.2-9-7.5-16.3-16.6-16.3S33.4,30,33.4,39.2   c0,0.1,0.3,12.1-6.9,17.2c-0.3,0.2-0.5,0.6-0.5,1s0.2,0.8,0.5,1c0.2,0.1,3.5,2.8,8.2,1.6l-0.6,2.6c-0.1,0.4,0,0.9,0.4,1.2   c0.3,0.3,0.8,0.4,1.2,0.3l3.9-1.1l-0.2,1.3c0,0.1,0,0.1,0,0.2c0,0.2-0.1,4.8-5.7,5c-7.5,0.3-10.5,5.9-10.6,6.2   c-0.3,0.6-0.1,1.4,0.5,1.7c0.6,0.3,1.4,0.1,1.7-0.5c0.1-0.2,2.5-4.6,8.5-4.8c6.3-0.2,8.1-4.9,8.1-7.4l0.4-3.1   c0.1-0.4-0.1-0.8-0.4-1.1c-0.3-0.3-0.8-0.4-1.2-0.3L37,61.1l0.6-2.8c0.1-0.5-0.1-1-0.4-1.3c-0.4-0.3-0.9-0.4-1.3-0.1   c-2.7,1.4-5,0.9-6.4,0.4c6.7-6.2,6.5-17.6,6.4-18.1c0-7.8,6.3-14.1,14.1-14.1s14,6.3,14,14.1c0,0.1,0,0.2,0,0.3   c0,1.9,0.2,12.1,6.4,17.8c-1.4,0.6-3.6,1-6.4-0.4c-0.4-0.2-1-0.2-1.3,0.1c-0.4,0.3-0.6,0.8-0.4,1.3l0.6,2.8L59.3,60   c-0.4-0.1-0.8,0-1.2,0.3c-0.3,0.3-0.5,0.7-0.4,1.1l0.4,3.1c0,2.5,1.8,7.2,8.1,7.4c6,0.2,8.4,4.6,8.5,4.8   C75,77.2,75.4,77.4,75.9,77.4z"></path></g></svg></g></g></svg>